# AST/ASF file generated using VICON BodyLanguage
# -----------------------------------------------
:version 1.10
:name VICON
:units
  mass 1.0
  length 0.45
  angle deg
:documentation
   .ast/.asf automatically generated from VICON data using
   VICON BodyBuilder and BodyLanguage model FoxedUp or BRILLIANT.MOD
:root
   order TX TY TZ RX RY RZ
   axis XYZ
   position 0 0 0  
   orientation 0 0 0 
:bonedata
  begin
     id 1 
     name lhipjoint
     direction 0.588788 -0.725889 0.355548 
     length 2.37778 
     axis 0 0 0  XYZ
  end
  begin
     id 2 
     name lfemur
     direction 0.34202 -0.939693 0  
     length 6.86393  
     axis 0 0 20  XYZ
    dof rx ry rz
    limits (-160.0 20.0)
           (-70.0 70.0)
           (-60.0 70.0)
  end
  begin
     id 3 
     name ltibia
     direction 0.34202 -0.939693 0   
     length 7.32851   
     axis 0 0 20   XYZ
    dof rx
    limits (-10.0 170.0)
  end
  begin
     id 4 
     name lfoot
     direction 0.0626533 -0.172138 0.983078   
     length 1.98929   
     axis -90 7.62852e-016 20   XYZ
    dof rx rz
    limits (-45.0 90.0)
           (-70.0 20.0)
  end
  begin
     id 5 
     name ltoes
     direction 1.53647e-011 -4.21734e-011 1   
     length 1.00479   
     axis -90 7.62852e-016 20   XYZ
    dof rx
    limits (-90.0 20.0)
  end
  begin
     id 6 
     name rhipjoint
     direction -0.59141 -0.724168 0.354705   
     length 2.38343  
     axis 0 0 0  XYZ 
  end
  begin
     id 7 
     name rfemur
     direction -0.34202 -0.939693 0   
     length 6.95589   
     axis 0 0 -20   XYZ
    dof rx ry rz
    limits (-160.0 20.0)
           (-70.0 70.0)
           (-70.0 60.0)
  end
  begin
     id 8 
     name rtibia
     direction -0.34202 -0.939693 0   
     length 7.32327   
     axis 0 0 -20   XYZ
    dof rx
    limits (-10.0 170.0)
 end
 begin
     id 9 
     name rfoot
     direction -0.0660461 -0.18146 0.981178   
     length 1.85272  
     axis -90 -7.62852e-016 -20   XYZ
    dof rx rz
    limits (-45.0 90.0)
           (-20.0 70.0)
  end
  begin
     id 10 
     name rtoes
     direction -1.53586e-011 -4.21988e-011 1   
     length 0.93746   
     axis -90 -7.62852e-016 -20   XYZ
    dof rx
    limits (-90.0 20.0)
  end
  begin
     id 11 
     name lowerback
     direction -0.0107982 0.991059 0.13299   
     length 1.98691   
     axis 0 0 0   XYZ
    dof rx ry rz
    limits (-20.0 45.0)
           (-30.0 30.0)
           (-30.0 30.0)
  end
  begin
     id 12 
     name upperback
     direction 0.0076296 0.999916 0.0104576   
     length 1.99501   
     axis 0 0 0   XYZ
    dof rx ry rz
    limits (-20.0 45.0)
           (-30.0 30.0)
           (-30.0 30.0)
  end
  begin
     id 13 
     name thorax
     direction 0.01176 0.998615 -0.0512909   
     length 2.03144   
     axis 0 0 0   XYZ
    dof rx ry rz
    limits (-20.0 45.0)
           (-30.0 30.0)
           (-30.0 30.0)
  end
  begin
     id 14 
     name lowerneck
     direction -0.0171909 0.999644 0.0204011   
     length 1.71818   
     axis 0 0 0   XYZ
    dof rx ry rz
    limits (-20.0 45.0)
           (-30.0 30.0)
           (-30.0 30.0)
  end
  begin
     id 15 
     name upperneck
     direction 0.0250902 0.997482 -0.0663316   
     length 1.66199   
     axis 0 0 0   XYZ
    dof rx ry rz
    limits (-20.0 45.0)
           (-30.0 30.0)
           (-30.0 30.0)
  end
  begin
     id 16
     name head
     direction 0.00881535 0.99956 -0.0283365  
     length 1.81545  
     axis 0 0 0   XYZ
    dof rx ry rz
    limits (-20.0 45.0)
           (-30.0 30.0)
           (-30.0 30.0)
  end
  begin
     id 17 
     name lclavicle
     direction 0.840411 0.486876 -0.238035  
     length 3.30409  
     axis 0 0 0   XYZ
    dof ry rz
    limits (-20.0 10.0)
           (0.0 20.0)
  end
  begin
     id 18 
     name lhumerus
     direction 1 -4.48977e-011 -5.16239e-027   
     length 4.62672   
     axis 180 -30 -90   XYZ
    dof rx ry rz
    limits (-60.0 90.0)
           (-90.0 90.0)
           (-90.0 90.0)
  end
  begin
     id 19
     name lradius
     direction 1 -4.48977e-011 -8.71171e-027   
     length 3.11018   
     axis 180 -30 -90   XYZ
    dof rx
    limits (-10.0 170.0)
  end
  begin
     id 20
     name lwrist
     direction 1 -4.48912e-011 -1.03764e-026   
     length 1.55509   
     axis 9.09556e-015 90 90   XYZ
    dof ry
    limits (-180.0 0.0)
 end
  begin
     id 21 
     name lhand
     direction 1 -4.49072e-011 -2.07528e-026   
     length 0.743834   
     axis 1.3242e-014 90 90   XYZ
    dof rx rz
    limits (-90.0 90.0)
           (-45.0 45.0)
  end
  begin
     id 22 
     name lfingers
     direction 1 -4.48909e-011 -4.15056e-026   
     length 0.599698   
     axis 2.64841e-014 90 90   XYZ
    dof rx
    limits (0.0 90.0)
  end
  begin
     id 23
     name lthumb
     direction 0.707107 -6.35013e-011 0.707107   
     length 0.86105   
     axis -90 45 2.85299e-015   XYZ
    dof rx rz
    limits (-45.0 45.0)
           (-45.0 45.0)
  end
  begin
     id 24 
     name rclavicle
     direction -0.835208 0.500237 -0.228452   
     length 3.2716  
     axis 0 0 0   XYZ 
    dof ry rz
    limits (-10.0 20.0)
           (-20.0 0.0)
  end
  begin
     id 25 
     name rhumerus
     direction -1 -4.48978e-011 -5.1953e-028  
     length 4.55919   
     axis 180 30 90   XYZ
    dof rx ry rz
    limits (-90.0 60.0)
           (-90.0 90.0)
           (-90.0 90.0)
  end
  begin
     id 26 
     name rradius
     direction -1 -4.48961e-011 -5.99546e-027   
     length 3.22748   
     axis 180 30 90   XYZ
    dof rx
    limits (-10.0 170.0)
  end
  begin
     id 27 
     name rwrist
     direction -1 -4.48986e-011 -1.03764e-026   
     length 1.61374   
     axis 9.09556e-015 -90 -90   XYZ
    dof ry
    limits (-180.0 0.0)
  end
  begin
     id 28
     name rhand
     direction -1 -4.4899e-011 -2.07528e-026   
     length 0.700882   
     axis 1.3242e-014 -90 -90   XYZ
    dof rx rz
    limits (-90.0 90.0)
           (-45.0 45.0)
  end
  begin
     id 29
     name rfingers
     direction -1 -4.48991e-011 -4.15056e-026   
     length 0.565069   
     axis 2.64841e-014 -90 -90   XYZ
    dof rx
    limits (0.0 90.0)
  end
  begin
     id 30
     name rthumb
     direction -0.707107 -6.34804e-011 0.707107   
     length 0.811329   
     axis -90 -45 -2.85299e-015   XYZ
    dof rx rz
    limits (-45.0 45.0)
           (-45.0 45.0)
  end
:hierarchy
  begin
    root lhipjoint rhipjoint lowerback
    lhipjoint lfemur
    lfemur ltibia
    ltibia lfoot
    lfoot ltoes
    rhipjoint rfemur
    rfemur rtibia
    rtibia rfoot
    rfoot rtoes
    lowerback upperback
    upperback thorax
    thorax lowerneck lclavicle rclavicle
    lowerneck upperneck
    upperneck head
    lclavicle lhumerus
    lhumerus lradius
    lradius lwrist
    lwrist lhand lthumb
    lhand lfingers
    rclavicle rhumerus
    rhumerus rradius
    rradius rwrist
    rwrist rhand rthumb
    rhand rfingers
  end

#!OML:ASF F:\VICON\USERDATA\INSTALL\SteveWalk\SteveWalk.ASF
:FULLY-SPECIFIED
:DEGREES
313
root 0.146525 16.3311 27.3815 16.9877 6.19522 -0.511522
lowerback -15.6709 -0.815609 2.30662
upperback -5.51581 -1.51944 2.78938
thorax 2.94397 -0.742845 1.35345
lowerneck -4.58829 -1.01406 -0.83357
upperneck 7.48572 -0.932687 -4.55497
head 3.19721 -0.658855 -1.37985
rclavicle -5.14355e-015 2.70347e-014
rhumerus -62.5218 -44.2871 -37.0472
rradius 12.5742
rwrist 33.8665
rhand -17.3681 -36.6724
rfingers 7.12502
rthumb 8.88016 293.534
lclavicle -5.14355e-015 2.70347e-014
lhumerus -30.1003 0.761372 88.4762
lradius 35.8028
lwrist 3.97935
lhand -21.1049 -19.3144
lfingers 7.12502
lthumb 5.27309 10.6
rfemur -35.9956 -4.51308 25.989
rtibia 35.8722
rfoot -17.0572 5.04908
rtoes -0.934405
lfemur -30.9085 1.21437 -18.2938
ltibia 73.2338
lfoot 6.26021 -2.49799
ltoes -3.12889
314
root 0.123407 16.35 27.6002 16.5963 5.88652 -1.23749
lowerback -15.553 -0.608991 2.62602
upperback -5.45043 -1.30218 3.01982
thorax 2.94568 -0.635218 1.4551
lowerneck -4.44606 -0.969201 -0.973511
upperneck 7.8274 -0.86292 -4.40711
head 3.28933 -0.626917 -1.30705
rclavicle -1.73191e-014 -7.15625e-015
rhumerus -56.2924 -41.2411 -45.4711
rradius 13.3587
rwrist 27.7945
rhand -17.6476 -36.4481
rfingers 7.12502
rthumb 8.61047 293.747
lclavicle -1.73191e-014 -7.15625e-015
lhumerus -30.7023 2.06828 88.2344
lradius 33.4816
lwrist 2.62506
lhand -20.9462 -18.7723
lfingers 7.12502
lthumb 5.42627 11.1382
rfemur -34.3626 -3.63005 26.664
rtibia 35.1884
rfoot -17.4941 4.5073
rtoes -1.79036
lfemur -32.0488 2.11113 -17.5951
ltibia 73.5678
lfoot 4.70269 -1.8007
ltoes -5.62262
315
root 0.137443 16.3747 27.8068 16.4743 6.12861 -1.39676
lowerback -15.5567 -0.573237 3.05407
upperback -5.45296 -1.31492 2.9479
thorax 2.93262 -0.644243 1.13578
lowerneck -4.39564 -0.946897 -0.880473
upperneck 8.12654 -0.835607 -4.33131
head 3.38334 -0.612041 -1.30125
rclavicle 6.85807e-015 -2.78299e-014
rhumerus -52.0192 -39.0074 -51.2317
rradius 14.2358
rwrist 23.6169
rhand -17.6646 -35.4513
rfingers 7.12502
rthumb 8.594 294.744
lclavicle 6.85807e-015 -2.78299e-014
lhumerus -31.2381 3.3859 87.742
lradius 31.0663
lwrist 1.33042
lhand -21.0596 -18.6396
lfingers 7.12502
lthumb 5.31677 11.2737
rfemur -33.0609 -4.29752 26.9454
rtibia 34.6489
rfoot -18.0539 4.96514
rtoes -1.25162
lfemur -33.3937 2.05671 -17.6492
ltibia 73.6389
lfoot 3.45598 -0.71247
ltoes -6.60757
316
root 0.126016 16.372 27.9995 16.1823 5.95452 -1.87824
lowerback -15.2079 -0.430691 3.37468
upperback -5.4093 -1.1618 3.04093
thorax 2.78717 -0.571096 1.08246
lowerneck -4.55254 -0.910236 -0.800451
upperneck 8.48554 -0.776129 -4.31516
head 3.53971 -0.586914 -1.31497
rclavicle -9.79014e-015 1.82882e-014
rhumerus -47.8662 -36.0493 -56.9698
rradius 15.4249
rwrist 18.8241
rhand -17.5226 -35.3433
rfingers 7.12502
rthumb 8.73105 294.857
lclavicle -9.79014e-015 1.82882e-014
lhumerus -31.6404 4.87898 87.1405
lradius 28.5581
lwrist -0.078501
lhand -21.1488 -18.644
lfingers 7.12502
lthumb 5.23067 11.2715
rfemur -31.7051 -3.76892 27.4053
rtibia 34.1937
rfoot -18.3878 4.71549
rtoes -0.0270547
lfemur -34.7987 2.63885 -17.287
ltibia 73.6903
lfoot 2.0772 0.115526
ltoes -5.37952
317
root 0.109581 16.38 28.195 16.2924 5.43611 -0.836163
lowerback -15.1851 -0.443212 2.03046
upperback -5.39478 -0.973624 2.76004
thorax 2.81216 -0.471552 1.57795
lowerneck -4.62626 -0.897966 -0.93223
upperneck 8.69629 -0.752485 -4.1622
head 3.62833 -0.577319 -1.24383
rclavicle -4.94477e-015 -2.38542e-015
rhumerus -44.1699 -32.7442 -62.0573
rradius 16.7772
rwrist 13.9748
rhand -17.1813 -36.3436
rfingers 7.12502
rthumb 9.06037 293.871
lclavicle -4.94477e-015 -2.38542e-015
lhumerus -31.9998 6.7208 86.4195
lradius 26.0654
lwrist -2.06455
lhand -21.1985 -18.9349
lfingers 7.12502
lthumb 5.18273 10.9818
rfemur -30.833 -3.50732 26.2372
rtibia 33.9983
rfoot -18.8919 4.44113
rtoes -0.329492
lfemur -36.2015 2.89792 -18.738
ltibia 73.2482
lfoot 0.770052 1.11719
ltoes -4.24294
318
root 0.101375 16.3906 28.4028 16.321 5.07382 -0.296518
lowerback -15.3505 -0.418605 1.3187
upperback -5.32944 -0.838452 2.57318
thorax 2.97582 -0.401369 1.80668
lowerneck -4.52854 -0.911377 -0.99229
upperneck 8.78354 -0.778062 -4.01317
head 3.63926 -0.586102 -1.18494
rclavicle 1.07841e-014 2.46493e-014
rhumerus -41.2134 -29.522 -66.2189
rradius 18.2584
rwrist 9.67454
rhand -16.9135 -36.4479
rfingers 7.12502
rthumb 9.31883 293.778
lclavicle 1.07841e-014 2.46493e-014
lhumerus -32.4502 8.82621 85.3875
lradius 23.6693
lwrist -4.42122
lhand -20.8704 -18.9609
lfingers 7.12502
lthumb 5.49949 10.9478
rfemur -29.9672 -3.52562 25.6807
rtibia 33.9169
rfoot -19.5714 4.29492
rtoes -0.827336
lfemur -37.3701 3.12038 -19.6097
ltibia 72.5797
lfoot -0.371327 1.97382
ltoes -2.68534
319
root 0.0966139 16.3986 28.6121 16.2439 4.81998 -0.32236
lowerback -15.3978 -0.35408 1.24223
upperback -5.33706 -0.741847 2.52892
thorax 2.99127 -0.35339 1.82033
lowerneck -4.29092 -0.912036 -0.897686
upperneck 8.94192 -0.782098 -4.05857
head 3.64812 -0.586841 -1.21657
rclavicle 6.38596e-015 -1.66979e-014
rhumerus -38.9804 -26.2403 -69.6434
rradius 19.9346
rwrist 5.66622
rhand -16.8304 -35.7107
rfingers 7.12502
rthumb 9.399 294.519
lclavicle 6.38596e-015 -1.66979e-014
lhumerus -33.2141 11.2744 83.9255
lradius 21.4489
lwrist -7.2914
lhand -19.9372 -18.2051
lfingers 7.12502
lthumb 6.4004 11.6782
rfemur -29.0937 -3.56647 25.7377
rtibia 33.9256
rfoot -20.273 4.50478
rtoes 0.679417
lfemur -38.4584 3.43241 -19.8261
ltibia 71.7148
lfoot -1.36042 2.54241
ltoes 0.733849
320
root 0.0885605 16.3944 28.8137 16.1654 4.54981 -0.340799
lowerback -15.2488 -0.258212 1.13137
upperback -5.43972 -0.590597 2.48459
thorax 2.80072 -0.277957 1.86315
lowerneck -4.05251 -0.920493 -0.867045
upperneck 9.18914 -0.794461 -4.03266
head 3.688 -0.592161 -1.21486
rclavicle -2.84511e-014 2.22639e-014
rhumerus -37.295 -23.1685 -72.3735
rradius 21.7441
rwrist 2.05675
rhand -16.771 -35.3974
rfingers 7.12502
rthumb 9.4563 294.835
lclavicle -2.84511e-014 2.22639e-014
lhumerus -34.313 13.9469 82.1273
lradius 19.4706
lwrist -10.4653
lhand -18.9529 -17.3387
lfingers 7.12502
lthumb 7.35063 12.5136
rfemur -28.1921 -3.81949 25.8516
rtibia 33.8809
rfoot -21.0264 4.75991
rtoes 1.27246
lfemur -39.5891 3.72321 -20.0531
ltibia 70.7242
lfoot -2.57999 2.82735
ltoes 2.06514
321
root 0.0847159 16.3838 29.0168 16.1482 4.33857 -0.246505
lowerback -15.2742 -0.173486 0.955116
upperback -5.42091 -0.45178 2.41074
thorax 2.83151 -0.208489 1.90946
lowerneck -4.09545 -0.908693 -0.899172
upperneck 9.37111 -0.782276 -3.88406
head 3.76062 -0.584099 -1.16234
rclavicle 6.31141e-015 1.19271e-014
rhumerus -35.6691 -20.6824 -74.5548
rradius 23.5462
rwrist -0.797586
rhand -16.8357 -35.1803
rfingers 7.12502
rthumb 9.39392 295.049
lclavicle 6.31141e-015 1.19271e-014
lhumerus -35.4056 16.8794 80.0435
lradius 17.5605
lwrist -14.1402
lhand -18.2886 -16.797
lfingers 7.12502
lthumb 7.99176 13.0319
rfemur -27.2701 -4.4585 25.9247
rtibia 33.8063
rfoot -21.8549 4.83635
rtoes -0.379077
lfemur -40.7116 3.82911 -20.4055
ltibia 69.5724
lfoot -4.00838 3.07399
ltoes 0.797953
322
root 0.0892761 16.3758 29.2281 16.1989 4.22651 -0.0365661
lowerback -15.544 -0.14551 0.81249
upperback -5.31166 -0.397667 2.27455
thorax 3.08926 -0.182288 1.8573
lowerneck -4.1234 -0.880484 -0.847387
upperneck 9.34613 -0.751487 -3.85256
head 3.75766 -0.56555 -1.15957
rclavicle 1.3418e-014 -1.59028e-015
rhumerus -34.0481 -18.4099 -76.4545
rradius 25.3126
rwrist -3.35085
rhand -16.9142 -34.8146
rfingers 7.12502
rthumb 9.31814 295.411
lclavicle 1.3418e-014 -1.59028e-015
lhumerus -36.6747 20.5486 77.2618
lradius 15.6468
lwrist -19.235
lhand -17.923 -16.6543
lfingers 7.12502
lthumb 8.34464 13.1609
rfemur -26.4104 -5.40967 25.8639
rtibia 33.7429
rfoot -22.6996 5.05195
rtoes -2.92936
lfemur -41.7723 3.76705 -20.8884
ltibia 68.2115
lfoot -5.20765 3.38899
ltoes -0.514616
323
root 0.0926441 16.366 29.4357 16.2385 4.0464 0.037152
lowerback -15.6994 -0.0786273 0.810823
upperback -5.21813 -0.310603 2.16338
thorax 3.26796 -0.140311 1.7576
lowerneck -4.08567 -0.855944 -0.835323
upperneck 9.19566 -0.729865 -3.80527
head 3.69756 -0.549851 -1.14242
rclavicle 4.69629e-015 -2.06736e-014
rhumerus -32.5627 -16.208 -78.0874
rradius 27.1783
rwrist -5.78633
rhand -16.7596 -34.6992
rfingers 7.12502
rthumb 9.46727 295.533
lclavicle 4.69629e-015 -2.06736e-014
lhumerus -38.3772 24.6024 73.834
lradius 14.0743
lwrist -25.0034
lhand -17.429 -16.6024
lfingers 7.12502
lthumb 8.82134 13.1932
rfemur -25.5768 -6.15903 25.8849
rtibia 33.6554
rfoot -23.5519 4.88609
rtoes -7.27628
lfemur -42.7949 3.82758 -21.2388
ltibia 66.6396
lfoot -5.98323 3.72248
ltoes -1.41686
